<svg width="200" height="200" viewBox="0 0 200 200" fill="none" xmlns="http://www.w3.org/2000/svg">
    <g clip-path="url(#clip0_1_2099)">
        <ellipse cx="65.5164" cy="132.056" rx="24.5828" ry="24.5828" fill="#D9D9D9" fill-opacity="0.5"/>
        <path d="M84.6962 125.693C94.7777 134.471 109.825 135.785 121.462 127.986C135.366 118.662 139.077 99.8319 129.751 85.9291C120.425 72.0263 101.609 68.3181 87.7052 77.6426C76.5272 85.1406 71.945 98.7867 75.4204 111.072L52.6811 123.026C46.5885 126.237 44.0204 133.634 46.8194 139.932L47.1529 140.549C47.2918 140.767 47.4688 140.977 47.6497 141.168C52.4025 146.14 60.222 146.542 65.4514 142.078L84.6962 125.693Z"
              fill="#ff8a33"/>
        <rect x="68.959" y="35.9998" width="73.1384" height="128" rx="9.14258" fill="#8ab7ff"/>
        <mask id="mask0_1_2099" style="mask-type:alpha" maskUnits="userSpaceOnUse" x="68" y="35" width="75"
              height="129">
            <rect x="68.9453" y="35.9997" width="73.1384" height="128" rx="9.14258" fill="black"/>
        </mask>
        <g mask="url(#mask0_1_2099)">
            <path d="M84.6942 125.693C94.7757 134.471 109.823 135.785 121.46 127.986C135.364 118.662 139.075 99.8319 129.749 85.9291C120.423 72.0263 101.607 68.3182 87.7033 77.6427C76.5252 85.1406 71.9431 98.7867 75.4185 111.072L52.6791 123.026C46.5865 126.237 44.0184 133.634 46.8174 139.933L47.1509 140.549C47.2899 140.767 47.4669 140.977 47.6477 141.168C52.4006 146.14 60.2201 146.542 65.4495 142.078L84.6942 125.693Z"
                  fill="#223E70"/>
        </g>
        <path d="M93.1777 49.6023H118.515" stroke="white" stroke-width="9.14258" stroke-linecap="round"/>
        <circle cx="18.2852" cy="18.2852" r="18.2852"
                transform="matrix(0.557009 0.830507 -0.830473 0.557059 109.084 77.0657)" fill="#FFEFC7"/>
        <circle cx="5" cy="5" r="5" transform="matrix(-1 0 0 1 159.598 148.716)" fill="#FF6673"/>
        <circle cx="10" cy="10" r="10" transform="matrix(-1 0 0 1 63.8203 46.3832)" fill="#64b1ff"/>
    </g>
    <defs>
        <clipPath id="clip0_1_2099">
            <rect width="200" height="200" fill="white"/>
        </clipPath>
    </defs>
</svg>
