<svg fill="rgba(0,0,0,0.55)" width="64px" height="64px" viewBox="-16 -16 48.00 48.00" xmlns="http://www.w3.org/2000/svg"
     transform="matrix(1, 0, 0, 1, 0, 0)" stroke="#000000" stroke-width="0.00016">

    <g id="SVGRepo_bgCarrier" stroke-width="0"/>

    <g id="SVGRepo_tracerCarrier" stroke-linecap="round" stroke-linejoin="round" stroke="#CCCCCC" stroke-width="0.032"/>

    <g id="SVGRepo_iconCarrier">

        <path fill-rule="evenodd"
              d="M7.375 3.67c0-.645-.56-1.17-1.25-1.17s-1.25.525-1.25 1.17c0 .646.56 1.17 1.25 1.17s1.25-.524 1.25-1.17zm0 8.66c0-.646-.56-1.17-1.25-1.17s-1.25.524-1.25 1.17c0 .645.56 1.17 1.25 1.17s1.25-.525 1.25-1.17zm-1.25-5.5c.69 0 1.25.525 1.25 1.17 0 .645-.56 1.17-1.25 1.17S4.875 8.645 4.875 8c0-.645.56-1.17 1.25-1.17zm5-3.16c0-.645-.56-1.17-1.25-1.17s-1.25.525-1.25 1.17c0 .646.56 1.17 1.25 1.17s1.25-.524 1.25-1.17zm-1.25 7.49c.69 0 1.25.524 1.25 1.17 0 .645-.56 1.17-1.25 1.17s-1.25-.525-1.25-1.17c0-.646.56-1.17 1.25-1.17zM11.125 8c0-.645-.56-1.17-1.25-1.17s-1.25.525-1.25 1.17c0 .645.56 1.17 1.25 1.17s1.25-.525 1.25-1.17z"/>

    </g>

</svg>
