<svg class="theme-arco-icon theme-arco-icon-challenge_tab_unselect index__icon--K9Hiq" width="1em" height="1em"
     viewBox="0 0 16 16" fill="none" xmlns="http://www.w3.org/2000/svg"
     style="stroke: unset; color: rgb(var(--theme-arco-primary-6));">
    <path fill-rule="evenodd" clip-rule="evenodd"
          d="M10.5297 0.834076C10.5899 0.733674 10.6984 0.672241 10.8155 0.672241H11.9765C12.2363 0.672241 12.3963 0.956352 12.2615 1.17849L10.5194 4.04944C12.5294 4.99562 13.9206 7.03938 13.9206 9.40808C13.9206 12.6773 11.2704 15.3275 8.00122 15.3275C4.73201 15.3275 2.08179 12.6773 2.08179 9.40808C2.08179 7.03021 3.48386 4.97982 5.50639 4.03851L3.77095 1.1785C3.63615 0.956353 3.79608 0.672241 4.05592 0.672241H5.21689C5.33398 0.672241 5.44248 0.733674 5.50272 0.834076L7.13336 3.55182C7.41662 3.5102 7.7064 3.48865 8.00122 3.48865C8.30558 3.48865 8.60459 3.51162 8.89659 3.55593L10.5297 0.834076ZM8.00122 4.81928C5.46689 4.81928 3.41242 6.87376 3.41242 9.40808C3.41242 11.9424 5.46689 13.9969 8.00122 13.9969C10.5355 13.9969 12.59 11.9424 12.59 9.40808C12.59 6.87376 10.5355 4.81928 8.00122 4.81928Z"
          fill="#000"></path>
    <path d="M7.70261 6.69044C7.82488 6.44269 8.17816 6.44269 8.30043 6.69044L8.94356 7.99356C8.99211 8.09194 9.08597 8.16013 9.19454 8.17591L10.6326 8.38488C10.906 8.4246 11.0152 8.7606 10.8174 8.95344L9.77675 9.96778C9.69819 10.0444 9.66234 10.1547 9.68089 10.2628L9.92654 11.6951C9.97324 11.9674 9.68743 12.1751 9.44289 12.0465L8.15663 11.3703C8.05952 11.3192 7.94351 11.3192 7.8464 11.3703L6.56014 12.0465C6.3156 12.1751 6.02979 11.9674 6.07649 11.6951L6.32215 10.2628C6.34069 10.1547 6.30484 10.0444 6.22628 9.96778L5.18568 8.95344C4.98784 8.7606 5.09701 8.4246 5.37041 8.38488L6.8085 8.17591C6.91707 8.16013 7.01092 8.09194 7.05948 7.99356L7.70261 6.69044Z"
          fill="#127FFF"></path>
</svg>
