<svg class="theme-arco-icon theme-arco-icon-order_unselect index__icon--K9Hiq" width="1em" height="1em"
     viewBox="0 0 17 16" fill="none" xmlns="http://www.w3.org/2000/svg"
     style="stroke: unset; color: rgb(var(--theme-arco-primary-6));">
    <path fill-rule="evenodd" clip-rule="evenodd"
          d="M7.15192 0.836975C6.59964 0.836975 6.15193 1.28468 6.15193 1.83696V1.91805H4.59072C3.67026 1.91805 2.92407 2.66424 2.92407 3.5847V13.4963C2.92407 14.4167 3.67026 15.1629 4.59072 15.1629H13.4065C14.327 15.1629 15.0731 14.4167 15.0731 13.4963V3.5847C15.0731 2.66423 14.327 1.91805 13.4065 1.91805H11.8361V1.83696C11.8361 1.28469 11.3883 0.836975 10.8361 0.836975H7.15192ZM11.8361 3.25137V3.33484C11.8361 3.88712 11.3883 4.33483 10.8361 4.33483H7.15192C6.59964 4.33483 6.15193 3.88712 6.15193 3.33484V3.25137H4.59072C4.40663 3.25137 4.25739 3.40061 4.25739 3.5847V13.4963C4.25739 13.6804 4.40663 13.8296 4.59072 13.8296H13.4065C13.5906 13.8296 13.7398 13.6804 13.7398 13.4963V3.5847C13.7398 3.40061 13.5906 3.25137 13.4065 3.25137H11.8361ZM7.48525 3.00151V2.17029H10.5027V3.00151H7.48525Z"
          fill="#000" fill-opacity=".92"></path>
    <path fill-rule="evenodd" clip-rule="evenodd"
          d="M6.26978 7.24468C6.26978 7.42877 6.41901 7.57801 6.60311 7.57801H11.379C11.5631 7.57801 11.7123 7.42877 11.7123 7.24468V6.57802C11.7123 6.39393 11.5631 6.24469 11.379 6.24469H6.60311C6.41901 6.24469 6.26978 6.39393 6.26978 6.57802V7.24468ZM6.26978 9.4075C6.26978 9.59159 6.41901 9.74083 6.60311 9.74083H11.379C11.5631 9.74083 11.7123 9.59159 11.7123 9.4075V8.74084C11.7123 8.55675 11.5631 8.40751 11.379 8.40751H6.60311C6.41901 8.40751 6.26978 8.55675 6.26978 8.74084V9.4075Z"
          fill="#127FFF"></path>
</svg>