<svg class="theme-arco-icon theme-arco-icon-account_unselect index__icon--K9Hiq" width="1em" height="1em"
     viewBox="0 0 16 16" fill="none" xmlns="http://www.w3.org/2000/svg"
     style="stroke: unset; color: rgb(var(--theme-arco-primary-6));">
    <path d="M8.00003 2.62807C6.71137 2.62807 5.6667 3.67274 5.6667 4.96141C5.6667 6.25007 6.71137 7.29474 8.00003 7.29474C9.2887 7.29474 10.3334 6.25007 10.3334 4.96141C10.3334 3.67274 9.2887 2.62807 8.00003 2.62807ZM4.33337 4.96141C4.33337 2.93636 5.97499 1.29474 8.00003 1.29474C10.0251 1.29474 11.6667 2.93636 11.6667 4.96141C11.6667 6.98645 10.0251 8.62807 8.00003 8.62807C5.97499 8.62807 4.33337 6.98645 4.33337 4.96141ZM8.00003 11.2947C6.02043 11.2947 4.34967 12.6228 3.83232 14.4368C3.78183 14.6138 3.60714 14.731 3.42672 14.6944L2.77338 14.5618C2.59296 14.5251 2.47545 14.3487 2.52269 14.1708C3.16599 11.7474 5.37375 9.96141 8.00003 9.96141C10.6263 9.96141 12.8341 11.7474 13.4774 14.1708C13.5246 14.3487 13.4071 14.5251 13.2267 14.5618L12.5733 14.6944C12.3929 14.731 12.2182 14.6138 12.1677 14.4368C11.6504 12.6228 9.97963 11.2947 8.00003 11.2947Z"
          fill="#000" fill-opacity=".92"></path>
    <path d="M8.00028 11.2948C6.02068 11.2948 4.34992 12.6228 3.83256 14.4369C3.78207 14.6139 3.60738 14.7311 3.42697 14.6945L2.77362 14.5618C2.59321 14.5252 2.4757 14.3488 2.52293 14.1708C3.16623 11.7475 5.374 9.96149 8.00028 9.96149C10.6266 9.96149 12.8343 11.7475 13.4776 14.1708C13.5249 14.3488 13.4073 14.5252 13.2269 14.5618L12.5736 14.6945C12.3932 14.7311 12.2185 14.6139 12.168 14.4369C11.6506 12.6228 9.97988 11.2948 8.00028 11.2948Z"
          fill="#127FFF"></path>
</svg>
