<svg class="theme-arco-icon theme-arco-icon-home_unselect index__icon--K9Hiq" width="1em" height="1em"
     viewBox="0 0 16 16" fill="#127FFF" xmlns="http://www.w3.org/2000/svg"
     style="stroke: unset; color: rgb(var(--theme-arco-primary-6));">
    <path fill-rule="evenodd" clip-rule="evenodd"
          d="M8.18191 2.64038C8.07116 2.56804 7.92812 2.56804 7.81737 2.64038L2.65723 6.01056C2.56298 6.07212 2.50617 6.17708 2.50617 6.28964V13.0632C2.50617 13.2473 2.65541 13.3965 2.8395 13.3965H6.55925V14.7299H2.8395C1.91903 14.7299 1.17285 13.9837 1.17285 13.0632V6.28964C1.17285 5.72682 1.45691 5.20201 1.92814 4.89424L7.08828 1.52406C7.64203 1.16239 8.35725 1.16239 8.911 1.52406L14.0711 4.89424C14.5424 5.20201 14.8264 5.72682 14.8264 6.28964V13.0632C14.8264 13.9837 14.0802 14.7299 13.1598 14.7299H9.43828V13.3965H13.1598C13.3439 13.3965 13.4931 13.2473 13.4931 13.0632V6.28964C13.4931 6.17708 13.4363 6.07212 13.3421 6.01056L8.18191 2.64038Z"
          fill="#000" fill-opacity=".92"></path>
    <path fill-rule="evenodd" clip-rule="evenodd"
          d="M5.39551 11.3231C5.39551 10.4027 6.14169 9.65649 7.06216 9.65649H8.93962C9.86009 9.65649 10.6063 10.4027 10.6063 11.3231V14.7428H9.27295V11.3231C9.27295 11.1391 9.12372 10.9898 8.93962 10.9898H7.06216C6.87806 10.9898 6.72883 11.1391 6.72883 11.3231V14.7428H5.39551V11.3231Z"
          fill="#127FFF"></path>
</svg>
