<svg class="theme-arco-icon theme-arco-icon-info_blue " width="1em" height="1em" viewBox="0 0 16 16" fill="none"
     xmlns="http://www.w3.org/2000/svg">
    <circle cx="8" cy="8" r="7" fill="#337FF8"></circle>
    <path fill-rule="evenodd" clip-rule="evenodd"
          d="M7.99997 5.34014C8.52167 5.34014 8.94458 4.91723 8.94458 4.39553C8.94458 3.87384 8.52167 3.45093 7.99997 3.45093C7.47828 3.45093 7.05537 3.87384 7.05537 4.39553C7.05537 4.91723 7.47828 5.34014 7.99997 5.34014ZM8.5 6.24563V6.24189H6.83C6.64775 6.24189 6.5 6.38963 6.5 6.57189V7.24189C6.5 7.42414 6.64775 7.57189 6.83 7.57189H7.61792V11.2419H6.94792C6.76567 11.2419 6.61792 11.3896 6.61792 11.5719L6.61792 12.2419C6.61792 12.4241 6.76567 12.5719 6.94792 12.5719H9.28792C9.47017 12.5719 9.61792 12.4241 9.61792 12.2419V11.5719C9.61792 11.3896 9.47017 11.2419 9.28792 11.2419H8.94792V6.57563C8.94792 6.39337 8.80017 6.24563 8.61792 6.24563H8.5Z"
          fill="#fff"></path>
</svg>
