<svg xmlns="http://www.w3.org/2000/svg" xmlns:xlink="http://www.w3.org/1999/xlink" width="22" height="21.149" viewBox="0 0 22 21.149">
  <defs>
    <clipPath id="clip-path">
      <rect id="Rectangle_24324" data-name="Rectangle 24324" width="22" height="21.149"/>
    </clipPath>
  </defs>
  <g id="ic-chat" clip-path="url(#clip-path)">
    <path id="Path_96456" data-name="Path 96456" d="M2697.306,398c-5.133,0-9.306,3.791-9.306,8.463a8.068,8.068,0,0,0,2.875,6.094,4.7,4.7,0,0,1-1.752,2.391h0a.426.426,0,0,0-.242.55.411.411,0,0,0,.477.257,6.755,6.755,0,0,0,4.158-1.584,9.23,9.23,0,0,0,1.657.513,6.861,6.861,0,0,1-.4-2.3c0-4.2,3.8-7.619,8.463-7.619a9.232,9.232,0,0,1,3.3.609C2705.937,401.212,2702.043,398,2697.306,398Zm5.926,8.463c-3.74,0-6.769,2.647-6.769,5.918s3.029,5.925,6.769,5.925a7.568,7.568,0,0,0,2.523-.433,6.534,6.534,0,0,0,3.732,1.269.426.426,0,0,0,.492-.337.432.432,0,0,0-.257-.469,4.856,4.856,0,0,1-1.569-1.892,5.544,5.544,0,0,0,1.848-4.063C2710,409.117,2706.972,406.463,2703.232,406.463Z" transform="translate(-2688 -398)" fill="#fff"/>
  </g>
</svg>
