<svg class="theme-arco-icon theme-arco-icon-question_circle index__formHint--HcyhC" width="1em" height="1em"
     viewBox="0 0 16 16" fill="rgba(0,0,0,.55)" xmlns="http://www.w3.org/2000/svg" style="stroke: none;">
    <path d="M7.11875 9.35063V7.5968L7.71608 7.5648C8.49475 7.5328 9.00787 7.10843 9.00787 6.45996 9.00787 5.81149 8.56942 5.45729 7.89742 5.45729 7.24675 5.45729 6.72008 5.77596 6.60275 6.49063L5.16675 6.25729C5.34808 4.93463 6.42542 4.16663 8.01475 4.16663 9.51088 4.16663 10.5654 5.05196 10.5654 6.41729 10.5654 7.51596 9.8403 8.30435 8.70808 8.51863V9.35063H7.11875zM6.87341 10.908C6.87341 10.332 7.31075 9.89463 7.89742 9.89463 8.48408 9.89463 8.91075 10.332 8.91075 10.908 8.91075 11.4733 8.48408 11.9106 7.89742 11.9106 7.31075 11.9106 6.87341 11.4733 6.87341 10.908z"
          fill-opacity="1"></path>
    <path d="M0.666748 7.99996C0.666748 3.94987 3.94999 0.666626 8.00008 0.666626C12.0502 0.666626 15.3334 3.94987 15.3334 7.99996C15.3334 12.05 12.0502 15.3333 8.00008 15.3333C3.94999 15.3333 0.666748 12.05 0.666748 7.99996ZM8.00008 14C11.3138 14 14.0001 11.3137 14.0001 7.99996C14.0001 4.68625 11.3138 1.99996 8.00008 1.99996C4.68637 1.99996 2.00008 4.68625 2.00008 7.99996C2.00008 11.3137 4.68637 14 8.00008 14Z"
          fill-opacity="1"></path>
</svg>