<svg class="theme-arco-icon theme-arco-icon-delete mr-16 cursor-pointer" width="1em" height="1em" viewBox="0 0 16 16"
     fill="currentColor" xmlns="http://www.w3.org/2000/svg"
     style="fill: rgba(0,0,0,.55); width: 16px; height: 16px;">
    <path d="M7.08333 6.62728C7.26743 6.62728 7.41667 6.77652 7.41667 6.96061V10.9606C7.41667 11.1447 7.26743 11.2939 7.08333 11.2939H6.58333C6.39924 11.2939 6.25 11.1447 6.25 10.9606V6.96061C6.25 6.77652 6.39924 6.62728 6.58333 6.62728H7.08333zM9.41667 11.2939C9.60076 11.2939 9.75 11.1447 9.75 10.9606V6.96061C9.75 6.77652 9.60076 6.62728 9.41667 6.62728H8.91667C8.73257 6.62728 8.58333 6.77652 8.58333 6.96061V10.9606C8.58333 11.1447 8.73257 11.2939 8.91667 11.2939H9.41667z"
          fill-opacity="1"></path>
    <path d="M5.41667 2.62728C5.41667 1.75283 6.12555 1.04395 7 1.04395H9C9.87445 1.04395 10.5833 1.75283 10.5833 2.62728V3.29395H13.6667C13.8508 3.29395 14 3.44318 14 3.62728V4.29395C14 4.47804 13.8508 4.62728 13.6667 4.62728H12.9776L12.4171 12.3868C12.3935 12.7147 12.373 12.9988 12.3374 13.2326C12.2997 13.4802 12.2383 13.7245 12.1044 13.9573C11.9038 14.3064 11.6024 14.5868 11.2397 14.7619C10.9979 14.8786 10.7498 14.9222 10.5 14.942C10.2643 14.9606 9.97955 14.9606 9.65082 14.9606H6.34901C6.02029 14.9606 5.73548 14.9606 5.49975 14.942C5.25003 14.9222 5.00194 14.8786 4.76007 14.7619C4.39741 14.5868 4.09603 14.3064 3.89535 13.9573C3.76151 13.7245 3.70013 13.4802 3.66242 13.2326C3.62682 12.9988 3.60631 12.7147 3.58264 12.3868L3.02223 4.62728H2.33333C2.14924 4.62728 2 4.47804 2 4.29395V3.62728C2 3.44318 2.14924 3.29395 2.33333 3.29395H5.41667V2.62728ZM4.35904 4.62728L4.91074 12.2663C4.9367 12.6257 4.95386 12.8565 4.98056 13.0318C5.00602 13.1991 5.03321 13.2614 5.05131 13.2929C5.11821 13.4092 5.21867 13.5027 5.33955 13.561C5.37227 13.5768 5.43635 13.5994 5.605 13.6128C5.78179 13.6268 6.01328 13.6273 6.3736 13.6273H9.62619C9.98651 13.6273 10.218 13.6268 10.3948 13.6128C10.5634 13.5994 10.6275 13.5768 10.6602 13.561C10.7811 13.5027 10.8816 13.4092 10.9485 13.2929C10.9666 13.2614 10.9938 13.1991 11.0192 13.0318C11.0459 12.8565 11.0631 12.6257 11.089 12.2663L11.6408 4.62728H4.35904ZM9.41667 2.62728C9.41667 2.39716 9.23012 2.21061 9 2.21061H7C6.76988 2.21061 6.58333 2.39716 6.58333 2.62728V3.29395H9.41667V2.62728Z"
          fill-opacity="1"></path>
</svg>
