<svg class="theme-arco-icon theme-arco-icon-eye index__actionButton--jlCA-" width="1em" height="1em" viewBox="0 0 16 16"
     fill="currentColor" xmlns="http://www.w3.org/2000/svg">
    <path d="M13.8016 7.90479C13.8221 7.96677 13.8221 8.03307 13.8016 8.09505C13.5888 8.73591 13.0675 9.72564 12.1923 10.6009C11.1833 11.6098 9.80646 12.3713 7.99994 12.3713C6.19343 12.3713 4.81658 11.6098 3.80762 10.6009C2.93239 9.72564 2.41111 8.73591 2.19833 8.09505C2.17775 8.03307 2.17775 7.96677 2.19833 7.90479C2.41111 7.26392 2.93239 6.27419 3.80762 5.39896C4.81658 4.39 6.19343 3.62849 7.99994 3.62849C9.80646 3.62849 11.1833 4.39 12.1923 5.39896C13.0675 6.27419 13.5888 7.26392 13.8016 7.90479ZM7.99994 13.6666C12.6084 13.6666 14.9414 9.76572 15.3199 8.06334C15.3294 8.02038 15.3294 7.97945 15.3199 7.93649C14.9414 6.23411 12.6084 2.33325 7.99994 2.33325C3.39147 2.33325 1.0585 6.23411 0.680015 7.93649C0.670464 7.97945 0.670464 8.02038 0.680015 8.06334C1.0585 9.76572 3.39147 13.6666 7.99994 13.6666Z"
          fill="#FFFFFF"></path>
    <path d="M7.99994 9.07135C7.40821 9.07135 6.92852 8.59165 6.92852 7.99992C6.92852 7.40818 7.40821 6.92849 7.99994 6.92849C8.59168 6.92849 9.07137 7.40818 9.07137 7.99992C9.07137 8.59165 8.59168 9.07135 7.99994 9.07135ZM7.99994 10.4999C9.38066 10.4999 10.4999 9.38063 10.4999 7.99992C10.4999 6.61921 9.38066 5.49992 7.99994 5.49992C6.61923 5.49992 5.49994 6.61921 5.49994 7.99992C5.49994 9.38063 6.61923 10.4999 7.99994 10.4999Z"
          fill="#FFFFFF"></path>
</svg>
