<svg class="theme-arco-icon theme-arco-icon-close " width="1em" height="1em" viewBox="0 0 16 16" fill="rgba(0, 0, 0, .55)"
     xmlns="http://www.w3.org/2000/svg">
    <path d="M7.05711 8.00004L3.43088 4.37381C3.30071 4.24364 3.30071 4.03258 3.43088 3.90241L3.90229 3.43101C4.03246 3.30083 4.24352 3.30083 4.37369 3.43101L7.99992 7.05723L11.6261 3.43101C11.7563 3.30083 11.9674 3.30083 12.0976 3.43101L12.569 3.90241C12.6991 4.03258 12.6991 4.24364 12.569 4.37381L8.94273 8.00004L12.569 11.6263C12.6991 11.7564 12.6991 11.9675 12.569 12.0977L12.0976 12.5691C11.9674 12.6993 11.7563 12.6993 11.6261 12.5691L7.99992 8.94285L4.37369 12.5691C4.24352 12.6993 4.03246 12.6993 3.90229 12.5691L3.43088 12.0977C3.30071 11.9675 3.30071 11.7564 3.43088 11.6263L7.05711 8.00004Z"
          fill-opacity="1"></path>
</svg>
