<svg class="theme-arco-icon theme-arco-icon-products_selected index__icon--K9Hiq" width="1em" height="1em"
     viewBox="0 0 17 16" fill="#127FFF" xmlns="http://www.w3.org/2000/svg"
     style="stroke: unset; color: rgb(var(--theme-arco-primary-6));">
    <path fill-rule="evenodd" clip-rule="evenodd"
          d="M5.09861 1.82471C4.40895 1.82471 3.8331 2.35063 3.77073 3.03747L2.8918 12.7173C2.82091 13.4981 3.43569 14.1712 4.21967 14.1712H13.7657C14.5496 14.1712 15.1644 13.4981 15.0935 12.7173L14.2146 3.03747C14.1522 2.35064 13.5764 1.82471 12.8867 1.82471H5.09861ZM9.04282 7.33323C8.1657 7.33323 7.43566 6.70351 7.28013 5.87151C7.2463 5.69055 7.1003 5.53994 6.9162 5.53994H6.24954C6.06544 5.53994 5.91434 5.68968 5.93371 5.87275C6.09986 7.44307 7.42846 8.66657 9.04282 8.66657C10.6572 8.66657 11.9858 7.44307 12.1519 5.87275C12.1713 5.68968 12.0202 5.53994 11.8361 5.53994H11.1694C10.9854 5.53994 10.8393 5.69055 10.8055 5.87151C10.65 6.70351 9.91995 7.33323 9.04282 7.33323Z"
          fill-opacity="1"></path>
</svg>
