<svg width="200" height="200" viewBox="0 0 200 200" fill="none" xmlns="http://www.w3.org/2000/svg">
    <g clip-path="url(#clip0_1_2955)">
        <path d="M158.832 85.8156C158.832 99.0704 148.087 109.816 134.832 109.816C121.577 109.816 110.832 99.0704 110.832 85.8156C110.832 72.5608 121.577 61.8156 134.832 61.8156C148.087 61.8156 158.832 72.5608 158.832 85.8156Z"
              fill="#D9D9D9" fill-opacity="0.2"/>
        <path d="M138.92 139.303C138.92 143.758 142.532 147.369 146.987 147.369C151.442 147.369 155.053 143.758 155.053 139.303C155.053 134.848 151.442 131.236 146.987 131.236C142.532 131.236 138.92 134.848 138.92 139.303Z"
              fill="#64b1ff"/>
        <path d="M55.5823 42.2365C55.5823 43.958 56.978 45.3536 58.6995 45.3536C60.4211 45.3536 61.8167 43.958 61.8167 42.2365C61.8167 40.5149 60.4211 39.1193 58.6995 39.1193C56.978 39.1193 55.5823 40.5149 55.5823 42.2365Z"
              fill="#FF6673"/>
        <path fill-rule="evenodd" clip-rule="evenodd"
              d="M80.0439 47.6503C80.0439 40.2776 86.0207 34.1185 93.3933 34.1185C100.766 34.1185 106.743 40.2776 106.743 47.6503H121.127V61.8156H65.6409V47.6503H80.0439ZM93.4742 46.1718C96.0874 46.1718 98.2059 44.0533 98.2059 41.4401C98.2059 38.8268 96.0874 36.7084 93.4742 36.7084C90.8609 36.7084 88.7425 38.8268 88.7425 41.4401C88.7425 44.0533 90.8609 46.1718 93.4742 46.1718Z"
              fill="#FF949B"/>
        <path d="M99.4739 96.4955C99.4739 101.722 95.237 105.959 90.0105 105.959C84.7841 105.959 80.5472 101.722 80.5472 96.4955C80.5472 91.269 84.7841 87.0321 90.0105 87.0321C95.237 87.0321 99.4739 91.269 99.4739 96.4955Z"
              fill="#FF949B"/>
        <path d="M130.591 96.4955C130.591 101.722 126.354 105.959 121.128 105.959C115.901 105.959 111.664 101.722 111.664 96.4955C111.664 91.269 115.901 87.0321 121.128 87.0321C126.354 87.0321 130.591 91.269 130.591 96.4955Z"
              fill="#FF949B"/>
        <path d="M159.997 96.4955C159.997 101.722 155.76 105.959 150.534 105.959C145.308 105.959 141.071 101.722 141.071 96.4955C141.071 91.269 145.308 87.0321 150.534 87.0321C155.76 87.0321 159.997 91.269 159.997 96.4955Z"
              fill="#FF949B"/>
        <path fill-rule="evenodd" clip-rule="evenodd"
              d="M59.7407 61.8815L54.1081 147.925H120.291L125.923 61.8815H59.7407ZM55.3087 47.6864C50.3222 47.6864 46.1912 51.5558 45.8655 56.5316L39.6134 152.038C39.2561 157.496 43.5868 162.12 49.0566 162.12H124.723C129.709 162.12 133.84 158.25 134.166 153.275L140.418 57.768C140.775 52.3099 136.445 47.6864 130.975 47.6864H55.3087Z"
              fill="#8ab7ff"/>
        <path fill-rule="evenodd" clip-rule="evenodd"
              d="M114.765 119.59L65.2348 119.592L65.2346 114.861L114.765 114.859L114.765 119.59Z" fill="#FFEFC7"/>
        <path fill-rule="evenodd" clip-rule="evenodd"
              d="M93.2552 129.3L65.2348 129.301L65.2346 124.57L93.255 124.569L93.2552 129.3Z" fill="#FFEFC7"/>
        <path fill-rule="evenodd" clip-rule="evenodd"
              d="M123.051 105.762L124.242 87.5594C127.935 88.8495 130.583 92.3632 130.583 96.4955C130.583 101.06 127.351 104.87 123.051 105.762Z"
              fill="#223E70"/>
        <path fill-rule="evenodd" clip-rule="evenodd"
              d="M114.117 47.6864C118.064 48.5819 121.01 52.1114 121.01 56.3291V61.8144H65.5237V56.3391C65.5237 52.1163 68.4739 48.5825 72.4255 47.6864H114.117Z"
              fill="#223E70"/>
    </g>
    <defs>
        <clipPath id="clip0_1_2955">
            <rect width="200" height="200" fill="white"/>
        </clipPath>
    </defs>
</svg>
